<mxfile host="app.diagrams.net" modified="2024-01-31T07:18:22.664Z" agent="Mozilla/5.0 (Macintosh; Intel Mac OS X 10_15_7) AppleWebKit/537.36 (KHTML, like Gecko) Chrome/120.0.0.0 Safari/537.36" version="22.1.19" etag="ZJApi7MJREDt1RxsTfQK" type="github">
  <diagram name="第 1 页" id="rc2ecsA4oZILKcnW_Jfl">
    <mxGraphModel>
      <root>
        <mxCell id="0" />
        <mxCell id="1" parent="0" />
      </root>
    </mxGraphModel>
  </diagram>
</mxfile>
